<svg id="d-46jzz8p" width="100%" xmlns="http://www.w3.org/2000/svg" style="max-width: 116px;" viewBox="-8 -8 116 66" role="graphics-document document" aria-roledescription="flowchart-v2"><style>#d-46jzz8p{font-family:ui-monospace,SFMono-Regular,Menlo,Monaco,Consolas,monospace;font-size:16px;fill:#333;}#d-46jzz8p .error-icon{fill:hsl(220.5882352941, 100%, 98.3333333333%);}#d-46jzz8p .error-text{fill:rgb(8.5000000002, 5.7500000001, 0);stroke:rgb(8.5000000002, 5.7500000001, 0);}#d-46jzz8p .edge-thickness-normal{stroke-width:2px;}#d-46jzz8p .edge-thickness-thick{stroke-width:3.5px;}#d-46jzz8p .edge-pattern-solid{stroke-dasharray:0;}#d-46jzz8p .edge-pattern-dashed{stroke-dasharray:3;}#d-46jzz8p .edge-pattern-dotted{stroke-dasharray:2;}#d-46jzz8p .marker{fill:#0b0b0b;stroke:#0b0b0b;}#d-46jzz8p .marker.cross{stroke:#0b0b0b;}#d-46jzz8p svg{font-family:ui-monospace,SFMono-Regular,Menlo,Monaco,Consolas,monospace;font-size:16px;}#d-46jzz8p .label{font-family:ui-monospace,SFMono-Regular,Menlo,Monaco,Consolas,monospace;color:#333;}#d-46jzz8p .cluster-label text{fill:rgb(8.5000000002, 5.7500000001, 0);}#d-46jzz8p .cluster-label span{color:rgb(8.5000000002, 5.7500000001, 0);}#d-46jzz8p .label text,#d-46jzz8p span{fill:#333;color:#333;}#d-46jzz8p .node rect,#d-46jzz8p .node circle,#d-46jzz8p .node ellipse,#d-46jzz8p .node polygon,#d-46jzz8p .node path{fill:#fff4dd;stroke:hsl(40.5882352941, 60%, 83.3333333333%);stroke-width:1px;}#d-46jzz8p .node .label{text-align:center;}#d-46jzz8p .node.clickable{cursor:pointer;}#d-46jzz8p .arrowheadPath{fill:undefined;}#d-46jzz8p .edgePath .path{stroke:#0b0b0b;stroke-width:2.0px;}#d-46jzz8p .flowchart-link{stroke:#0b0b0b;fill:none;}#d-46jzz8p .edgeLabel{background-color:hsl(-79.4117647059, 100%, 93.3333333333%);text-align:center;}#d-46jzz8p .edgeLabel rect{opacity:0.5;background-color:hsl(-79.4117647059, 100%, 93.3333333333%);fill:hsl(-79.4117647059, 100%, 93.3333333333%);}#d-46jzz8p .cluster rect{fill:hsl(220.5882352941, 100%, 98.3333333333%);stroke:hsl(220.5882352941, 60%, 88.3333333333%);stroke-width:1px;}#d-46jzz8p .cluster text{fill:rgb(8.5000000002, 5.7500000001, 0);}#d-46jzz8p .cluster span{color:rgb(8.5000000002, 5.7500000001, 0);}#d-46jzz8p div.mermaidTooltip{position:absolute;text-align:center;max-width:200px;padding:2px;font-family:ui-monospace,SFMono-Regular,Menlo,Monaco,Consolas,monospace;font-size:12px;background:hsl(220.5882352941, 100%, 98.3333333333%);border:1px solid undefined;border-radius:2px;pointer-events:none;z-index:100;}#d-46jzz8p .flowchartTitleText{text-anchor:middle;font-size:18px;fill:#333;}#d-46jzz8p :root{--mermaid-font-family:ui-monospace,SFMono-Regular,Menlo,Monaco,Consolas,monospace;}</style><g><marker id="flowchart-pointEnd" class="marker flowchart" viewBox="0 0 12 20" refX="10" refY="5" markerUnits="userSpaceOnUse" markerWidth="12" markerHeight="12" orient="auto"><path d="M 0 0 L 10 5 L 0 10 z" class="arrowMarkerPath" style="stroke-width: 1; stroke-dasharray: 1,0;"></path></marker><marker id="flowchart-pointStart" class="marker flowchart" viewBox="0 0 10 10" refX="0" refY="5" markerUnits="userSpaceOnUse" markerWidth="12" markerHeight="12" orient="auto"><path d="M 0 5 L 10 10 L 10 0 z" class="arrowMarkerPath" style="stroke-width: 1; stroke-dasharray: 1,0;"></path></marker><marker id="flowchart-circleEnd" class="marker flowchart" viewBox="0 0 10 10" refX="11" refY="5" markerUnits="userSpaceOnUse" markerWidth="11" markerHeight="11" orient="auto"><circle cx="5" cy="5" r="5" class="arrowMarkerPath" style="stroke-width: 1; stroke-dasharray: 1,0;"></circle></marker><marker id="flowchart-circleStart" class="marker flowchart" viewBox="0 0 10 10" refX="-1" refY="5" markerUnits="userSpaceOnUse" markerWidth="11" markerHeight="11" orient="auto"><circle cx="5" cy="5" r="5" class="arrowMarkerPath" style="stroke-width: 1; stroke-dasharray: 1,0;"></circle></marker><marker id="flowchart-crossEnd" class="marker cross flowchart" viewBox="0 0 11 11" refX="12" refY="5.2" markerUnits="userSpaceOnUse" markerWidth="11" markerHeight="11" orient="auto"><path d="M 1,1 l 9,9 M 10,1 l -9,9" class="arrowMarkerPath" style="stroke-width: 2; stroke-dasharray: 1,0;"></path></marker><marker id="flowchart-crossStart" class="marker cross flowchart" viewBox="0 0 11 11" refX="-1" refY="5.2" markerUnits="userSpaceOnUse" markerWidth="11" markerHeight="11" orient="auto"><path d="M 1,1 l 9,9 M 10,1 l -9,9" class="arrowMarkerPath" style="stroke-width: 2; stroke-dasharray: 1,0;"></path></marker><g class="root"><g class="clusters"></g><g class="edgePaths"><path d="M125,50L125,54.167C125,58.333,125,66.667,125,75C125,83.333,125,91.667,125,95.833L125,100" id="L-A-B-0" class=" edge-thickness-normal edge-pattern-solid flowchart-link LS-A LE-B" style="fill:none;" marker-end="url(#flowchart-pointEnd)"></path><path d="M125,150L125,154.167C125,158.333,125,166.667,125,175C125,183.333,125,191.667,125,195.833L125,200" id="L-B-C-0" class=" edge-thickness-normal edge-pattern-solid flowchart-link LS-B LE-C" style="fill:none;" marker-end="url(#flowchart-pointEnd)"></path><path d="M125,250L125,254.167C125,258.333,125,266.667,125,275C125,283.333,125,291.667,125,295.833L125,300" id="L-C-D-0" class=" edge-thickness-normal edge-pattern-solid flowchart-link LS-C LE-D" style="fill:none;" marker-end="url(#flowchart-pointEnd)"></path><path d="M125,350L125,354.167C125,358.333,125,366.667,125,379.167C125,391.667,125,408.333,125,416.667L125,425" id="L-D-E-0" class=" edge-thickness-normal edge-pattern-solid flowchart-link LS-D LE-E" style="fill:none;" marker-end="url(#flowchart-pointEnd)"></path><path d="M125,425L112.5,433.333C100,441.667,75,458.333,62.5,470.833C50,483.333,50,491.667,50,495.833L50,500" id="L-E-F-0" class=" edge-thickness-normal edge-pattern-solid flowchart-link LS-E LE-F" style="fill:none;" marker-end="url(#flowchart-pointEnd)"></path><path d="M125,425L137.5,433.333C150,441.667,175,458.333,187.5,470.833C200,483.333,200,491.667,200,495.833L200,500" id="L-E-G-0" class=" edge-thickness-normal edge-pattern-solid flowchart-link LS-E LE-G" style="fill:none;" marker-end="url(#flowchart-pointEnd)"></path><path d="M50,550L50,554.167C50,558.333,50,566.667,50,575C50,583.333,50,591.667,50,595.833L50,600" id="L-F-H-0" class=" edge-thickness-normal edge-pattern-solid flowchart-link LS-F LE-H" style="fill:none;" marker-end="url(#flowchart-pointEnd)"></path><path d="M200,550L200,554.167C200,558.333,200,566.667,200,575C200,583.333,200,591.667,200,595.833L200,600" id="L-G-I-0" class=" edge-thickness-normal edge-pattern-solid flowchart-link LS-G LE-I" style="fill:none;" marker-end="url(#flowchart-pointEnd)"></path><path d="M50,650L50,654.167C50,658.333,50,666.667,50,675C50,683.333,50,691.667,50,695.833L50,700" id="L-H-J-0" class=" edge-thickness-normal edge-pattern-solid flowchart-link LS-H LE-J" style="fill:none;" marker-end="url(#flowchart-pointEnd)"></path><path d="M50,750L50,754.167C50,758.333,50,766.667,50,775C50,783.333,50,791.667,50,795.833L50,800" id="L-J-K-0" class=" edge-thickness-normal edge-pattern-solid flowchart-link LS-J LE-K" style="fill:none;" marker-end="url(#flowchart-pointEnd)"></path></g><g class="edgeLabels"><g class="edgeLabel"><g class="label" transform="translate(0, 0)"><foreignObject width="0" height="0"><div style="display: inline-block; white-space: nowrap;" xmlns="http://www.w3.org/1999/xhtml"><span class="edgeLabel"></span></div></foreignObject></g></g><g class="edgeLabel"><g class="label" transform="translate(0, 0)"><foreignObject width="0" height="0"><div style="display: inline-block; white-space: nowrap;" xmlns="http://www.w3.org/1999/xhtml"><span class="edgeLabel"></span></div></foreignObject></g></g><g class="edgeLabel"><g class="label" transform="translate(0, 0)"><foreignObject width="0" height="0"><div style="display: inline-block; white-space: nowrap;" xmlns="http://www.w3.org/1999/xhtml"><span class="edgeLabel"></span></div></foreignObject></g></g><g class="edgeLabel"><g class="label" transform="translate(0, 0)"><foreignObject width="0" height="0"><div style="display: inline-block; white-space: nowrap;" xmlns="http://www.w3.org/1999/xhtml"><span class="edgeLabel"></span></div></foreignObject></g></g><g class="edgeLabel" transform="translate(undefined, undefined)"><g class="label" transform="translate(0, 0)"><foreignObject width="0" height="0"><div style="display: inline-block; white-space: nowrap;" xmlns="http://www.w3.org/1999/xhtml"><span class="edgeLabel">yes</span></div></foreignObject></g></g><g class="edgeLabel" transform="translate(undefined, undefined)"><g class="label" transform="translate(0, 0)"><foreignObject width="0" height="0"><div style="display: inline-block; white-space: nowrap;" xmlns="http://www.w3.org/1999/xhtml"><span class="edgeLabel">no</span></div></foreignObject></g></g><g class="edgeLabel"><g class="label" transform="translate(0, 0)"><foreignObject width="0" height="0"><div style="display: inline-block; white-space: nowrap;" xmlns="http://www.w3.org/1999/xhtml"><span class="edgeLabel"></span></div></foreignObject></g></g><g class="edgeLabel"><g class="label" transform="translate(0, 0)"><foreignObject width="0" height="0"><div style="display: inline-block; white-space: nowrap;" xmlns="http://www.w3.org/1999/xhtml"><span class="edgeLabel"></span></div></foreignObject></g></g><g class="edgeLabel"><g class="label" transform="translate(0, 0)"><foreignObject width="0" height="0"><div style="display: inline-block; white-space: nowrap;" xmlns="http://www.w3.org/1999/xhtml"><span class="edgeLabel"></span></div></foreignObject></g></g><g class="edgeLabel"><g class="label" transform="translate(0, 0)"><foreignObject width="0" height="0"><div style="display: inline-block; white-space: nowrap;" xmlns="http://www.w3.org/1999/xhtml"><span class="edgeLabel"></span></div></foreignObject></g></g></g><g class="nodes"><g class="node default default" id="flowchart-A-194358" transform="translate(125, 25)"><rect class="basic label-container" style="" rx="0" ry="0" x="-7.5" y="-7.5" width="15" height="15"></rect><g class="label" style="" transform="translate(0, 0)"><foreignObject width="0" height="0"><div style="display: inline-block; white-space: nowrap;" xmlns="http://www.w3.org/1999/xhtml"><span class="nodeLabel">Start</span></div></foreignObject></g></g><g class="node default default" id="flowchart-B-194359" transform="translate(125, 125)"><rect class="basic label-container" style="" rx="0" ry="0" x="-7.5" y="-7.5" width="15" height="15"></rect><g class="label" style="" transform="translate(0, 0)"><foreignObject width="0" height="0"><div style="display: inline-block; white-space: nowrap;" xmlns="http://www.w3.org/1999/xhtml"><span class="nodeLabel">Allocate C array</span></div></foreignObject></g></g><g class="node default default" id="flowchart-C-194361" transform="translate(125, 225)"><rect class="basic label-container" style="" rx="0" ry="0" x="-7.5" y="-7.5" width="15" height="15"></rect><g class="label" style="" transform="translate(0, 0)"><foreignObject width="0" height="0"><div style="display: inline-block; white-space: nowrap;" xmlns="http://www.w3.org/1999/xhtml"><span class="nodeLabel">Call C function with ctx</span></div></foreignObject></g></g><g class="node default default" id="flowchart-D-194363" transform="translate(125, 325)"><rect class="basic label-container" style="" rx="0" ry="0" x="-7.5" y="-7.5" width="15" height="15"></rect><g class="label" style="" transform="translate(0, 0)"><foreignObject width="0" height="0"><div style="display: inline-block; white-space: nowrap;" xmlns="http://www.w3.org/1999/xhtml"><span class="nodeLabel">Callback receives id/status</span></div></foreignObject></g></g><g class="node default default" id="flowchart-E-194365" transform="translate(125, 425)"><polygon points="15,0 30,-15 15,-30 0,-15" class="label-container" transform="translate(-15,15)" style=""></polygon><g class="label" style="" transform="translate(0, 0)"><foreignObject width="0" height="0"><div style="display: inline-block; white-space: nowrap;" xmlns="http://www.w3.org/1999/xhtml"><span class="nodeLabel">status==0</span></div></foreignObject></g></g><g class="node default default" id="flowchart-F-194367" transform="translate(50, 525)"><rect class="basic label-container" style="" rx="0" ry="0" x="-7.5" y="-7.5" width="15" height="15"></rect><g class="label" style="" transform="translate(0, 0)"><foreignObject width="0" height="0"><div style="display: inline-block; white-space: nowrap;" xmlns="http://www.w3.org/1999/xhtml"><span class="nodeLabel">Append id to Go slice</span></div></foreignObject></g></g><g class="node default default" id="flowchart-G-194369" transform="translate(200, 525)"><rect class="basic label-container" style="" rx="0" ry="0" x="-7.5" y="-7.5" width="15" height="15"></rect><g class="label" style="" transform="translate(0, 0)"><foreignObject width="0" height="0"><div style="display: inline-block; white-space: nowrap;" xmlns="http://www.w3.org/1999/xhtml"><span class="nodeLabel">Return error</span></div></foreignObject></g></g><g class="node default default" id="flowchart-H-194371" transform="translate(50, 625)"><rect class="basic label-container" style="" rx="0" ry="0" x="-7.5" y="-7.5" width="15" height="15"></rect><g class="label" style="" transform="translate(0, 0)"><foreignObject width="0" height="0"><div style="display: inline-block; white-space: nowrap;" xmlns="http://www.w3.org/1999/xhtml"><span class="nodeLabel">Free C memory</span></div></foreignObject></g></g><g class="node default default" id="flowchart-I-194373" transform="translate(200, 625)"><rect class="basic label-container" style="" rx="0" ry="0" x="-7.5" y="-7.5" width="15" height="15"></rect><g class="label" style="" transform="translate(0, 0)"><foreignObject width="0" height="0"><div style="display: inline-block; white-space: nowrap;" xmlns="http://www.w3.org/1999/xhtml"><span class="nodeLabel">Return error</span></div></foreignObject></g></g><g class="node default default" id="flowchart-J-194375" transform="translate(50, 725)"><rect class="basic label-container" style="" rx="0" ry="0" x="-7.5" y="-7.5" width="15" height="15"></rect><g class="label" style="" transform="translate(0, 0)"><foreignObject width="0" height="0"><div style="display: inline-block; white-space: nowrap;" xmlns="http://www.w3.org/1999/xhtml"><span class="nodeLabel">Return results</span></div></foreignObject></g></g><g class="node default default" id="flowchart-K-194377" transform="translate(50, 825)"><rect class="basic label-container" style="" rx="0" ry="0" x="-7.5" y="-7.5" width="15" height="15"></rect><g class="label" style="" transform="translate(0, 0)"><foreignObject width="0" height="0"><div style="display: inline-block; white-space: nowrap;" xmlns="http://www.w3.org/1999/xhtml"><span class="nodeLabel">Done</span></div></foreignObject></g></g></g></g></g></svg>